# xmcd
#
# Track frame offsets: 
#        150
#        15028
#        29607
#        44129
#        63340
#        86007
#        105063
#        113404
#        123778
#        127659
#        137230
#        150386
#        165789
#        183313
#        197983
#        213846
#        235535
#        254461
#        271468
#        287976
#        304827
#
# Disc length: 4292 seconds
#
# Revision: 1
# Processed by: cddbd v1.5.1PL0 Copyright (c) Steve Scherf et al.
# Submitted via: ExactAudioCopy v0.90b4
#
DISCID=0d10c215
DTITLE=Mississippi John Hurt - Frankie and Albert
DYEAR=2002
DGENRE=Blues
TTITLE0=Hot Time In Old Town Tonight
TTITLE1=Candy Man
TTITLE2=Baby, What's Wrong With You
TTITLE3=Frankie and Albert
TTITLE4=Louis Collins
TTITLE5=Richland Woman Blues
TTITLE6=I'm Satisfied
TTITLE7=My Creole Bell
TTITLE8=C.H.I.C.K.E.N Blues
TTITLE9=Shake That Thing
TTITLE10=Spike Driver Blues
TTITLE11=Salty Dog
TTITLE12=Casey Jones
TTITLE13=Talkin' Casey
TTITLE14=Coffee Blues
TTITLE15=Monday Morning Blues
TTITLE16=Trouble I Had All My Days
TTITLE17=Nobody's Business But My Own
TTITLE18=Make Me A Pallet On Your Floor
TTITLE19=Lonesome Blues
TTITLE20=Here I Am - Oh Lord Send Me
EXTD=(c)2002 Tomato Records
EXTT0=
EXTT1=
EXTT2=
EXTT3=
EXTT4=
EXTT5=
EXTT6=
EXTT7=
EXTT8=
EXTT9=
EXTT10=
EXTT11=
EXTT12=
EXTT13=
EXTT14=
EXTT15=
EXTT16=
EXTT17=
EXTT18=
EXTT19=
EXTT20=
PLAYORDER=
